<?xml version="1.0" encoding="utf-8"?>
<!-- Generator: Adobe Illustrator 26.0.1, SVG Export Plug-In . SVG Version: 6.00 Build 0)  -->
<svg version="1.1" id="Layer_1" xmlns="http://www.w3.org/2000/svg" xmlns:xlink="http://www.w3.org/1999/xlink" x="0px" y="0px"
	 viewBox="0 0 1000 1000" style="enable-background:new 0 0 1000 1000;" xml:space="preserve">
<style type="text/css">
	.st0{fill:#11AD85;}
	.st1{fill:none;}
</style>
<g>
	<path class="st0" d="M332.72,465.16c2.89-2.95,5.63-5.77,8.28-8.67c0.19-0.21,0.15-0.43,0.12-0.67c-0.36-2.67-1.35-5.08-3.11-7.11
		c-2.35-2.72-5.32-4.27-8.93-4.54c-0.28,0.26-0.63,0.15-0.95,0.15c-18.69,0.01-37.38,0.01-56.06,0c-0.32,0-0.66,0.11-0.95-0.15
		c-4.75,0.5-8.31,2.8-10.62,7c0.39,0.58-0.02,0.79-0.47,0.96c-0.03,0.02-0.04,0.05-0.02,0.08c0.25,0.8-0.29,1.47-0.43,2.19
		c-0.21,1.11-0.21,2.2-0.24,3.31c-0.04,1.33,0.1,2.66,0.02,4c-0.07,1.13,0.12,2.27,0.03,3.39c-0.19,2.26,0.22,4.52-0.13,6.77
		c-0.11,0.71,0.09,1.47,0.15,2.2c0.11,1.35-0.28,2.67-0.19,4.03c0.09,1.33,0.25,2.66,0.16,3.98c-0.1,1.48-0.1,2.97-0.07,4.43
		c0.03,1.26,0.01,2.54,0.04,3.8c0.03,1.16-0.02,2.33-0.05,3.5c-0.01,0.54,0.11,1.06,0.13,1.59c0.08,2.07-0.27,4.12-0.2,6.18
		c0.16,4.48,0.2,8.96,0.18,13.44c-0.01,2.04,0.15,4.1-0.05,6.13c-0.18,1.85,0.25,3.67-0.06,5.52c-0.13,0.76,0.24,1.62,0.47,2.42
		c0.11,0.38,0.19,0.75,0.15,1.14c0.03,0.02,0.06,0.04,0.09,0.06c0.03,0.02,0.06,0.04,0.08,0.06c0.03,0.02,0.05,0.05,0.08,0.07
		c0.04,0.03,0.07,0.06,0.1,0.1c0.02,0.03,0.05,0.05,0.07,0.07c0.01,0.01,0.01,0.01,0.01,0.02c0.02,0.03,0.04,0.06,0.06,0.09
		c0.06,0.08,0.1,0.17,0.14,0.26c0.01,0.02,0.01,0.03,0.02,0.05c0.01,0.02,0.02,0.05,0.03,0.07c0.01,0.04,0.02,0.08,0.03,0.12
		c0.01,0.03,0.01,0.06,0.02,0.09c0.03,0.17,0.03,0.34,0.01,0.53c0.64,1.18,1.45,2.22,2.48,3.08c0.16,0.01,0.34,0.01,0.31,0.25
		c0,0,0.02,0.04,0.02,0.04c0.11-0.04,0.19-0.06,0.26-0.06c0.02,0,0.03,0,0.05,0c0.01,0,0.02,0,0.03,0.01c0.01,0,0.02,0.01,0.03,0.01
		c0.01,0,0.02,0.01,0.03,0.01c0.01,0.01,0.02,0.01,0.03,0.02c0.05,0.04,0.08,0.1,0.1,0.17c0.01,0.02,0.01,0.03,0.01,0.05
		c0,0.01,0.01,0.03,0.01,0.04c0.01,0.03,0.01,0.06,0.01,0.08c0,0.01,0,0.03,0,0.04c0,0.02,0,0.04,0.01,0.07
		c0.03,0.03,0.06,0.06,0.1,0.08c0,0,0,0,0,0c0.03,0.03,0.06,0.05,0.09,0.08h0c0.06,0,0.13-0.01,0.19,0c0.02,0,0.03,0,0.05,0
		c0.01,0,0.03,0,0.04,0.01c0.01,0,0.03,0.01,0.04,0.01c0.06,0.01,0.11,0.04,0.14,0.09c0.01,0.01,0.01,0.02,0.02,0.03
		c0.02,0.03,0.04,0.07,0.05,0.12c0,0.01,0,0.02,0.01,0.03v0.01c0,0.02,0,0.04,0,0.07v0.01c0.14,0.03,0.29,0.05,0.43,0.07
		c0.06,0.01,0.11,0.01,0.16,0.02c0.03,0,0.06,0.01,0.09,0.02c0.01,0,0.03,0,0.04,0.01c0.03,0.01,0.06,0.01,0.09,0.02
		c0.03,0.01,0.06,0.02,0.09,0.03c0.01,0.01,0.03,0.01,0.04,0.02c0.01,0.01,0.03,0.01,0.04,0.02c0.02,0.01,0.04,0.02,0.05,0.03
		c0.01,0.01,0.02,0.01,0.03,0.02c0.01,0.01,0.03,0.02,0.04,0.03c0.02,0.02,0.05,0.05,0.07,0.08c0.02,0.02,0.03,0.05,0.05,0.08
		c0.01,0.01,0.01,0.02,0.01,0.03c0.01,0.02,0.02,0.05,0.03,0.08c0.01,0.03,0.02,0.05,0.03,0.08c0.01,0.02,0.01,0.04,0.01,0.06
		c0.01,0.03,0.01,0.06,0.02,0.09c0,0,0.04,0.03,0.04,0.03l0.05-0.02c0.99,0.02,1.91,0.39,2.8,0.71c1.13,0.41,2.27,0.45,3.4,0.4
		c0.66-0.03,1.28-0.07,1.94,0.02c1.33,0.17,2.67-0.05,4.01-0.01c1.55,0.06,3.09-0.09,4.65-0.03c1.46,0.06,2.95,0.04,4.44-0.05
		c2.17-0.14,4.36-0.16,6.55,0.07c1.2,0.13,2.44-0.25,3.66-0.13c2.27,0.22,4.54,0.07,6.8,0.06c1.47-0.01,2.94,0.17,4.44,0.02
		c1.71-0.17,3.48,0.12,5.24,0.09c1.35-0.03,2.69-0.19,4.04-0.15c2.23,0.07,4.45,0.15,6.68,0.17c1.63,0.01,3.24-0.2,4.88-0.13
		c0.91,0.04,1.87-0.4,2.76-0.75c0.44-0.18,0.85-0.21,1.29-0.18c0.01-0.02,0.01-0.03,0.02-0.05c0-0.01,0.01-0.01,0.01-0.02
		c0-0.01,0.01-0.01,0.01-0.02c0.01-0.01,0.02-0.02,0.03-0.03c0.01-0.01,0.01-0.01,0.02-0.02c0,0,0.01-0.01,0.01-0.01
		c0.07-0.04,0.16-0.05,0.26-0.03h0c0.02-0.03,0.03-0.06,0.05-0.08c0.03-0.04,0.05-0.08,0.08-0.12c0.03-0.03,0.05-0.07,0.08-0.1
		c0,0,0-0.01,0.01-0.01c0.02-0.02,0.04-0.04,0.06-0.06c0.03-0.03,0.05-0.05,0.08-0.07c0,0,0,0,0,0c0.03-0.02,0.05-0.04,0.08-0.06
		c0.02-0.02,0.05-0.03,0.07-0.05c0.03-0.02,0.07-0.04,0.1-0.06c0.03-0.01,0.06-0.03,0.1-0.04c0.03-0.01,0.07-0.02,0.1-0.03
		c0.05-0.01,0.11-0.03,0.16-0.03c0.08-0.01,0.17-0.01,0.26-0.01c0-0.05,0.01-0.09,0.01-0.14c0-0.01,0-0.02,0.01-0.03
		c0.01-0.05,0.02-0.09,0.04-0.11c0.01-0.01,0.01-0.01,0.02-0.02c0.01-0.01,0.02-0.01,0.03-0.01c0.01,0,0.01,0,0.02,0
		c0.05,0,0.12,0.03,0.21,0.11c1.53-1.07,2.8-2.38,3.63-4.07c-0.01-0.1-0.02-0.2-0.01-0.29c0-0.01,0-0.03,0-0.04
		c0-0.02,0.01-0.04,0.01-0.06c0,0,0,0,0,0c0.01-0.03,0.01-0.05,0.02-0.08c0.01-0.03,0.02-0.05,0.04-0.08
		c0.01-0.01,0.02-0.03,0.03-0.04c0.01-0.01,0.02-0.03,0.03-0.04c0.01-0.01,0.03-0.03,0.05-0.04c0.02-0.01,0.03-0.03,0.05-0.04
		c0.04-0.03,0.08-0.05,0.13-0.06c0.02-0.11,0.04-0.22,0.07-0.33c0.01-0.05,0.02-0.09,0.03-0.13c0.02-0.07,0.04-0.14,0.05-0.21
		c0.1-0.36,0.22-0.72,0.34-1.08c0.05-0.14,0.1-0.29,0.14-0.43c0.05-0.15,0.09-0.29,0.13-0.44c0.04-0.15,0.08-0.3,0.11-0.44
		s0.06-0.3,0.08-0.45c0.05-0.39,0.1-0.77,0.1-1.16c0-12.96,0-25.91,0-38.87c0-0.39,0.03-0.78-0.19-1.14
		c-0.33,0.35-0.66,0.69-0.99,1.04c-6.43,6.8-12.89,13.57-19.28,20.41c-1.7,1.82-3.64,3.14-5.99,3.95
		c-4.28,1.48-8.54,3.02-12.81,4.53c-0.64,0.6-1.87,0.37-2.32-0.43c-0.18-0.17-0.35-0.33-0.53-0.5c-0.06-0.07-0.13-0.14-0.19-0.2h0
		c-0.01-0.01-0.02-0.01-0.03-0.02c-0.02-0.01-0.04-0.03-0.06-0.04c-0.03-0.02-0.06-0.04-0.08-0.07c-0.04-0.03-0.08-0.07-0.11-0.11
		c-0.01-0.02-0.03-0.03-0.04-0.05c-0.03-0.03-0.06-0.06-0.08-0.1c-0.01-0.02-0.02-0.03-0.03-0.05c-0.02-0.03-0.03-0.05-0.05-0.08
		c-0.02-0.03-0.03-0.05-0.04-0.08c-0.01-0.03-0.03-0.06-0.04-0.08c-0.01-0.03-0.02-0.06-0.03-0.09c-0.02-0.06-0.03-0.12-0.04-0.17
		c-0.04-0.19-0.04-0.38-0.02-0.57c0.01-0.07,0.02-0.14,0.03-0.21c0.01-0.09,0.03-0.18,0.05-0.27c0.01-0.05,0.02-0.1,0.03-0.14
		c0.64-2.54,1.42-5.06,2.16-7.57c0.45-1.51,0.82-3.05,1.29-4.55c0.48-1.53,0.86-3.1,1.55-4.56c0.09-0.19,0.19-0.38,0.46-0.34
		l0.02-0.02c-0.13-0.31,0.03-0.39,0.3-0.4c0.11-0.12,0.22-0.23,0.33-0.35c0.01-0.16,0-0.33,0.25-0.3c0,0,0.02-0.02,0.02-0.02
		c-0.04-0.14,0.01-0.19,0.15-0.16c0,0,0.03-0.02,0.03-0.02c-0.04-0.14,0.02-0.19,0.15-0.16c0,0,0.02-0.02,0.02-0.02
		c-0.04-0.14,0.02-0.19,0.16-0.17l0.03-0.01c-0.07-0.29,0.07-0.38,0.33-0.36l0-0.01c-0.02-0.14,0.04-0.2,0.18-0.18l0.01,0.01v-0.03
		c0-0.03,0-0.05,0.01-0.07c0-0.01,0-0.03,0.01-0.04c0-0.01,0-0.03,0.01-0.04c0-0.02,0.01-0.03,0.01-0.05c0-0.02,0.01-0.03,0.02-0.05
		c0-0.01,0.01-0.02,0.01-0.03c0.01-0.02,0.02-0.03,0.03-0.05c0.01-0.01,0.02-0.03,0.04-0.04c0.01-0.01,0.03-0.03,0.04-0.04
		c0.02-0.02,0.05-0.03,0.07-0.05c0.02-0.01,0.05-0.02,0.08-0.03c0.02-0.01,0.04-0.01,0.06-0.02c0.02,0,0.03-0.01,0.05-0.01
		c0.03-0.01,0.07-0.01,0.1-0.02c0.09-0.15,0.17-0.31,0.25-0.47c0.02-0.04,0.04-0.08,0.06-0.12c0.02-0.04,0.04-0.08,0.07-0.11
		c0.02-0.03,0.04-0.07,0.06-0.1c0.01-0.02,0.03-0.04,0.05-0.06c0.01-0.02,0.03-0.03,0.04-0.05c0,0,0-0.01,0.01-0.01
		c0.01-0.01,0.02-0.03,0.04-0.04c0,0,0.01-0.01,0.01-0.01c0.03-0.03,0.05-0.05,0.08-0.08c0.03-0.03,0.06-0.05,0.09-0.07
		c0.03-0.02,0.06-0.04,0.1-0.06c0.01,0,0.01-0.01,0.02-0.01c0.03-0.01,0.05-0.03,0.08-0.04c0.02-0.01,0.04-0.02,0.06-0.02
		c0.02-0.01,0.03-0.01,0.05-0.02c0.01-0.01,0.03-0.01,0.04-0.01c0,0,0,0,0,0c0.03-0.01,0.07-0.01,0.1-0.02
		c-0.01-0.05-0.01-0.09,0-0.13c0-0.01,0-0.01,0-0.02c0-0.01,0-0.02,0.01-0.03c0.01-0.03,0.02-0.06,0.03-0.08
		c0.01-0.01,0.02-0.03,0.03-0.04c0.01-0.01,0.03-0.03,0.04-0.03c0.02-0.01,0.03-0.02,0.05-0.03c0.04-0.01,0.08-0.02,0.13-0.02
		c0.02,0,0.03,0,0.05,0c0.07-0.06,0.14-0.13,0.21-0.19c0.46-0.48,0.93-0.95,1.4-1.43c0.01-0.17,0.01-0.33,0.25-0.31
		c-0.01,0-0.04-0.01-0.05-0.01l0.06,0.01c-0.03-0.14,0.03-0.19,0.17-0.18h0c0-0.01,0-0.01,0.01-0.02c0.02-0.05,0.04-0.1,0.06-0.14
		c0.07-0.19,0.14-0.39,0.26-0.53c0.02-0.02,0.03-0.04,0.05-0.06c0.04-0.04,0.08-0.07,0.13-0.1c0.03-0.02,0.05-0.03,0.08-0.04
		c0.03-0.01,0.06-0.02,0.09-0.03c0.03-0.01,0.06-0.02,0.1-0.02c0.03-0.01,0.07-0.01,0.11-0.01c1.73-1.87,3.47-3.73,5.2-5.6
		c-0.03-0.03-0.05-0.07-0.08-0.1c0.04,0.02,0.08,0.04,0.12,0.06c0,0,0.05-0.06,0.05-0.06c0.01-0.04,0.03-0.08,0.04-0.12
		c0.04-0.12,0.08-0.23,0.13-0.33c0.01-0.02,0.02-0.04,0.03-0.06c0.01-0.02,0.02-0.04,0.03-0.06c0.01-0.03,0.03-0.05,0.04-0.07
		c0.01-0.03,0.03-0.05,0.05-0.08c0.02-0.03,0.04-0.05,0.06-0.07c0.02-0.03,0.04-0.05,0.07-0.07c0.02-0.02,0.04-0.04,0.07-0.06
		c0.02-0.01,0.04-0.03,0.06-0.04c0,0,0.01-0.01,0.01-0.01c0.03-0.02,0.06-0.04,0.1-0.05c0.03-0.01,0.06-0.03,0.09-0.04
		c0.01,0,0.01-0.01,0.02-0.01c0.02-0.01,0.05-0.01,0.07-0.02c0.01,0,0.01,0,0.02,0c0.01,0,0.02-0.01,0.03-0.01
		c0.03-0.01,0.06-0.01,0.09-0.02c0.06-0.06,0.13-0.13,0.2-0.2c0.23-0.24,0.46-0.47,0.69-0.71c0.01-0.16,0-0.34,0.26-0.28
		c0,0,0.03-0.03,0.03-0.03c0.23-0.59,0.49-1.15,1.19-1.32c0.17-0.18,0.33-0.35,0.5-0.53c0-0.64-0.29-0.73-0.92-0.7
		c-1.56,0.08-3.14,0.29-4.7,0c-0.63-0.12-1.17,0.14-1.77,0.14c-12.24-0.02-24.49,0.03-36.73-0.06c-1.87-0.01-3.85,0.14-5.62-0.83
		c-0.26-0.14-0.64-0.15-0.3-0.58c-0.49-0.54-0.98-1.08-1.46-1.62c-0.68-0.51-0.89-1.28-0.89-2.03c-0.03-5.37-0.03-10.73,0-16.1
		c0-0.05,0-0.1,0-0.15c0-0.03,0-0.05,0-0.08c0-0.03,0-0.05,0.01-0.08c0.01-0.1,0.02-0.21,0.03-0.31c0.01-0.05,0.02-0.1,0.03-0.16
		c0-0.01,0.01-0.03,0.01-0.04c0.01-0.05,0.03-0.11,0.05-0.16c0-0.01,0.01-0.03,0.01-0.04c0.02-0.07,0.05-0.13,0.08-0.2
		c0.02-0.04,0.04-0.07,0.06-0.11c0,0,0,0,0,0c0.02-0.03,0.04-0.06,0.06-0.1c0.02-0.04,0.05-0.07,0.08-0.1
		c0.02-0.02,0.04-0.04,0.06-0.06c0-0.01,0.01-0.01,0.01-0.01c0.02-0.02,0.04-0.04,0.06-0.06c0,0,0.01-0.01,0.01-0.01
		c0.02-0.02,0.05-0.04,0.07-0.06c0.03-0.02,0.05-0.05,0.08-0.06v0c-0.01-0.09-0.01-0.17-0.01-0.25c0-0.02,0.01-0.05,0.01-0.07
		c0-0.01,0.01-0.02,0.01-0.03c0.01-0.03,0.02-0.05,0.04-0.08c0.01-0.01,0.02-0.02,0.03-0.03c0.01-0.01,0.03-0.03,0.05-0.04
		c0.01-0.01,0.03-0.01,0.04-0.02c0.01-0.01,0.03-0.01,0.04-0.01c0.01,0,0.03-0.01,0.04-0.01c0.01,0,0.03-0.01,0.05-0.01
		c0.01,0,0.03,0,0.05,0c0-0.03,0-0.06,0-0.1c0-0.06,0-0.11,0.01-0.16c0,0,0-0.01,0-0.01c0-0.01,0.01-0.03,0.01-0.04
		c0-0.01,0.01-0.03,0.01-0.04c0.01-0.01,0.01-0.03,0.02-0.04c0-0.01,0.01-0.01,0.01-0.02c0.01-0.02,0.03-0.04,0.05-0.05
		c0.01-0.01,0.01-0.01,0.02-0.01c0.02-0.01,0.04-0.03,0.07-0.03c0.01,0,0.02-0.01,0.03-0.01c0.01-0.01,0.03-0.01,0.04-0.01
		c0.01,0,0.03,0,0.05-0.01c0.03,0,0.05,0,0.08,0c0.17-0.17,0.34-0.34,0.51-0.51c0-0.04,0.01-0.07,0.01-0.1
		c0-0.01,0.01-0.03,0.01-0.04c0-0.01,0.01-0.03,0.01-0.04c0.01-0.03,0.02-0.06,0.04-0.09c0.01-0.01,0.02-0.03,0.03-0.04
		c0.01-0.02,0.03-0.04,0.04-0.05c0.02-0.02,0.03-0.03,0.05-0.05c0.01-0.01,0.03-0.02,0.04-0.03c0.03-0.02,0.07-0.04,0.11-0.05
		c0.02-0.01,0.04-0.01,0.06-0.02c0.01-0.01,0.03-0.01,0.04-0.01c0.03-0.01,0.06-0.01,0.09-0.02c0.02,0,0.04-0.01,0.06-0.01
		c0.01,0,0.01,0,0.01,0c0.04,0,0.08-0.01,0.12-0.01c0-0.01,0.01-0.02,0.01-0.03c0-0.01,0.01-0.02,0.01-0.02
		c0-0.01,0.01-0.02,0.02-0.03c0.01-0.01,0.01-0.02,0.02-0.02c0.01-0.01,0.01-0.02,0.02-0.02c0.01-0.01,0.02-0.01,0.03-0.02
		c0.01-0.01,0.03-0.01,0.04-0.02c0.02-0.01,0.04-0.01,0.05-0.02s0.04-0.01,0.05-0.01c0.01,0,0.02,0,0.04,0c0.02,0,0.05,0,0.07,0
		c0.03-0.05,0.07-0.09,0.1-0.13c0.01-0.02,0.03-0.03,0.05-0.05c0.05-0.05,0.1-0.1,0.15-0.14c0.02-0.02,0.05-0.03,0.07-0.05
		c0.03-0.02,0.05-0.04,0.08-0.05c0.03-0.02,0.06-0.04,0.09-0.05c0.1-0.05,0.2-0.1,0.31-0.13c0.05-0.02,0.11-0.03,0.16-0.04
		c0.03-0.01,0.07-0.01,0.1-0.02c0.04-0.01,0.08-0.01,0.12-0.02c0.06-0.01,0.12-0.02,0.19-0.02c0.03,0,0.06-0.01,0.1-0.01
		c0.05,0,0.09-0.01,0.14-0.01c0.21-0.01,0.41-0.01,0.62-0.01c10.64-0.01,21.28-0.01,31.91-0.01c7.85,0,15.7,0,23.55,0
		c0.55,0,1.15-0.11,1.49,0.51c2.31,1.08,3.37,2.89,3.29,5.45C332.66,460.34,332.72,462.66,332.72,465.16z M310.88,514.77
		c0.08-0.16,0.22-0.22,0.39-0.23h0c0.15-0.33,0.44-0.35,0.75-0.37c2.15-0.08,4.3,0.02,6.46-0.11c2.34-0.14,4.69,0.06,7.04,0.13
		c0.51,0.01,1.08-0.03,1.4,0.51c0.11,0.07,0.22,0.14,0.33,0.21c0.43,0.01,0.4,0.31,0.37,0.6c-0.01,0.05-0.01,0.08,0.03,0.11
		c0.57,0.56,0.5,1.37-0.17,1.98c-0.19,0.19-0.37,0.38-0.56,0.57c-0.07,0.05-0.14,0.1-0.21,0.15c-0.05-0.01-0.1,0.01-0.15,0.04
		c-0.04,0.2-0.15,0.32-0.36,0.32c-0.21,0.01-0.42,0.01-0.63,0.01c-4.41-0.13-8.82,0.25-13.23,0.17c-0.32-0.01-0.75,0.21-0.9-0.32
		C309.74,517.89,309.51,516.4,310.88,514.77z M310.93,522.12c-0.08-0.08-0.08-0.15,0.01-0.21c0.24-0.15,0.5-0.17,0.78-0.17
		c4.6,0.07,9.2-0.32,13.8-0.16c0.21,0.01,0.71-0.39,0.69,0.28c1.04,0.25,1.54,0.84,1.6,1.85c0.06,1.07-0.56,1.94-1.66,2.31
		c0.11,0.35-0.18,0.21-0.29,0.21c-4.58,0.01-9.17,0.01-13.75,0.01c-0.28,0-0.54-0.01-0.75-0.22
		C309.68,524.79,309.54,523.46,310.93,522.12z M288.55,523.62c1.01,1.01,1.13,2.25,0.31,3.11c-0.72,0.76-2.2,0.94-3.2-0.13
		c-1.23-1.31-2.55-2.54-3.78-3.85c-0.43-0.46-0.66-0.43-1.09,0.02c-1.24,1.31-2.53,2.56-3.81,3.82c-0.94,0.93-2.21,1.02-3.04,0.23
		c-0.89-0.85-0.85-2.11,0.14-3.1c1.23-1.23,2.43-2.5,3.72-3.66c0.63-0.57,0.51-0.87-0.04-1.38c-1.27-1.19-2.48-2.44-3.71-3.67
		c-0.59-0.59-0.88-1.29-0.69-2.12c0.32-1.46,1.57-1.95,3.18-1.26c0.12-0.08,0.14,0.01,0.15,0.1c0.11,0.1,0.23,0.21,0.34,0.31
		c0.03,0.03,0.07,0.06,0.1,0.09c0.03,0.03,0.06,0.06,0.1,0.09c0.01,0.01,0.01,0.01,0.01,0.01c0.02,0.03,0.05,0.06,0.08,0.08
		c0.03,0.04,0.07,0.07,0.1,0.11c0.29,0.29,0.58,0.58,0.87,0.88c0.07,0.07,0.14,0.14,0.21,0.21c0.83,0.83,1.66,1.67,2.48,2.5
		c0.27,0,0.53-0.01,0.8-0.01c1.3-1.27,2.59-2.55,3.9-3.82c0.3-0.29,0.64-0.53,0.96-0.79c0.05-0.22,0.15-0.3,0.33-0.11
		c1.93,0.1,2.85,1.2,2.35,2.78c-0.14,0.45-0.47,0.75-0.78,1.08c-1.37,1.42-2.74,2.85-4.16,4.32
		C285.7,520.79,287.13,522.2,288.55,523.62z M273.42,491.87c1.71-0.01,3.42-0.05,5.13,0.02c0.74,0.03,0.89-0.23,0.86-0.91
		c-0.05-1.56,0.02-3.12-0.03-4.68c-0.03-0.96,0.29-1.69,1.09-2.21c0.64-0.7,1.35-0.7,1.97,0.01c0.17,0.13,0.35,0.25,0.52,0.38
		c0.06,0.06,0.13,0.13,0.19,0.19c0.11,0.04,0.2,0.09,0.28,0.14c0.05,0.03,0.09,0.07,0.13,0.11c0.03,0.03,0.05,0.05,0.07,0.08
		c0.02,0.02,0.03,0.05,0.05,0.07c0.08,0.12,0.12,0.24,0.15,0.37c0,0.02,0.01,0.04,0.01,0.06c0,0.01,0,0.03,0.01,0.04
		c0.01,0.05,0.01,0.1,0.01,0.15c0.01,0.32-0.05,0.66-0.05,0.91c-0.01,1.75,0.21,3.49,0.08,5.24h0.37c0.62-0.33,1.28-0.13,1.92-0.14
		c1.25-0.04,2.5-0.01,3.76,0c0.02,0,0.06,0.03,0.06,0.05c0,0.05-0.02,0.1-0.03,0.15c1.27,0.66,1.71,1.58,1.34,2.74
		c-0.3,0.92-0.95,1.36-1.88,1.37c-1.71,0.02-3.42,0.04-5.13-0.01c-0.66-0.02-0.79,0.2-0.78,0.81c0.04,1.59,0.02,3.18,0.01,4.77
		c0,1.35-0.81,2.23-2.03,2.24c-1.26,0.01-2.1-0.89-2.1-2.27c-0.01-1.56-0.05-3.12,0.02-4.68c0.03-0.75-0.23-0.88-0.91-0.87
		c-1.71,0.04-3.42,0.02-5.13,0c-1.32-0.01-2.1-0.78-2.11-2.03C271.26,492.66,272.05,491.88,273.42,491.87z M339.74,531.12
		C339.73,531.12,339.73,531.12,339.74,531.12c-0.01,0.01-0.01,0.01-0.01,0.01L339.74,531.12
		C339.74,531.12,339.74,531.12,339.74,531.12z M335.41,536.17L335.41,536.17C335.42,536.18,335.42,536.17,335.41,536.17
		L335.41,536.17z M334.17,536.91c0,0-0.01,0.01-0.01,0.01C334.16,536.91,334.16,536.91,334.17,536.91
		C334.17,536.91,334.17,536.91,334.17,536.91C334.17,536.91,334.17,536.91,334.17,536.91z M333.8,537.08
		C333.8,537.09,333.8,537.09,333.8,537.08c0,0.01,0,0.01,0,0.01c0.01,0,0.01-0.01,0.01-0.01H333.8z M316.7,481.81
		C316.7,481.81,316.7,481.81,316.7,481.81l0.01,0C316.7,481.81,316.7,481.81,316.7,481.81z M307.51,491.7c0,0-0.01,0.01-0.01,0.01
		l0.02-0.01H307.51z M307.15,492.07L307.15,492.07C307.16,492.08,307.16,492.07,307.15,492.07c0.01,0,0.01,0,0.01,0
		C307.16,492.06,307.16,492.07,307.15,492.07z M305.93,493.36C305.93,493.36,305.93,493.36,305.93,493.36
		C305.93,493.36,305.93,493.36,305.93,493.36L305.93,493.36L305.93,493.36z M270.23,452.8c0,0.01-0.01,0.01-0.01,0.01L270.23,452.8
		L270.23,452.8z M269.87,452.99c0,0.01-0.01,0.01-0.01,0.01l0.02-0.02C269.88,452.98,269.87,452.98,269.87,452.99z M268.24,454.59
		L268.24,454.59C268.24,454.6,268.24,454.59,268.24,454.59L268.24,454.59z M267.9,455.14C267.9,455.14,267.89,455.14,267.9,455.14
		C267.89,455.14,267.89,455.14,267.9,455.14l-0.01,0.02C267.89,455.15,267.9,455.14,267.9,455.14L267.9,455.14z M264.78,536.17
		L264.78,536.17C264.79,536.18,264.79,536.18,264.78,536.17C264.79,536.17,264.79,536.17,264.78,536.17
		C264.79,536.17,264.79,536.17,264.78,536.17z M264.06,535.63l0.01,0.02L264.06,535.63C264.06,535.63,264.06,535.63,264.06,535.63z"
		/>
	<path class="st1" d="M326.16,526.03c0.11,0.35-0.18,0.21-0.29,0.21c-4.58,0.01-9.17,0.01-13.75,0.01c-0.28,0-0.54-0.01-0.75-0.22
		H326.16z"/>
	<path class="st1" d="M313.62,521.94c-0.9,0.01-1.8,0.03-2.69,0.18c-0.08-0.08-0.08-0.15,0.01-0.21c0.24-0.15,0.5-0.17,0.78-0.17
		c4.6,0.07,9.2-0.32,13.8-0.16c0.21,0.01,0.71-0.39,0.69,0.28h-3.61c-0.36,0.01-0.71,0.01-1.07,0.02
		C318.9,521.9,316.26,521.92,313.62,521.94z"/>
	<path class="st1" d="M311.27,514.54c-0.13,0.08-0.26,0.15-0.39,0.23C310.95,514.61,311.1,514.56,311.27,514.54z"/>
	<path class="st1" d="M325.14,518.44c0.48-0.01,0.95-0.06,1.42-0.09c-0.04,0.2-0.15,0.32-0.36,0.32c-0.21,0.01-0.42,0.01-0.63,0.01
		c-4.41-0.13-8.82,0.25-13.23,0.17c-0.32-0.01-0.75,0.21-0.9-0.32c0.9,0.01,1.8,0.02,2.71,0.03c0.48-0.01,0.95-0.02,1.43-0.02
		C318.77,518.51,321.96,518.48,325.14,518.44z"/>
	<path class="st1" d="M326.93,514.7c-0.35-0.05-0.7-0.15-1.05-0.15c-4.04-0.06-8.07-0.1-12.11-0.16c-0.84-0.01-1.67,0.03-2.5,0.15
		c0.15-0.33,0.44-0.35,0.75-0.37c2.15-0.08,4.3,0.02,6.46-0.11c2.34-0.14,4.69,0.06,7.04,0.13
		C326.03,514.21,326.6,514.16,326.93,514.7z"/>
	<path class="st1" d="M327.63,515.51c-0.12-0.2-0.25-0.4-0.37-0.6C327.68,514.93,327.65,515.22,327.63,515.51z"/>
	<path class="st1" d="M327.49,517.6c0.21-0.64,0.27-1.3,0.17-1.98C328.23,516.19,328.16,516.99,327.49,517.6z"/>
	<path class="st1" d="M276.68,511.72c-0.05-0.03-0.1-0.06-0.15-0.1C276.65,511.55,276.66,511.63,276.68,511.72z"/>
	<path class="st1" d="M277.21,512.21L277.21,512.21c-0.03-0.02-0.06-0.05-0.09-0.08C277.15,512.15,277.18,512.18,277.21,512.21z"/>
	<path class="st1" d="M280.97,516c0.27,0,0.53-0.01,0.8-0.01C281.5,516.44,281.24,516.46,280.97,516z"/>
	<path class="st1" d="M286.95,511.28c-0.11,0.04-0.22,0.07-0.33,0.11C286.67,511.17,286.77,511.09,286.95,511.28z"/>
	<path class="st1" d="M282.45,484.1c-0.66-0.24-1.31-0.26-1.97-0.01C281.12,483.39,281.83,483.39,282.45,484.1z"/>
	<path class="st1" d="M283.81,486.59c-0.01,1.75,0.21,3.49,0.08,5.24c-0.55,0.05-0.35-0.38-0.35-0.61c-0.02-1.55-0.03-3.1,0-4.66
		c0.01-0.67-0.08-1.3-0.39-1.9l0.02,0.01c0,0,0,0,0,0c0.11,0.04,0.2,0.09,0.28,0.14c0.05,0.03,0.09,0.07,0.13,0.11
		c0.03,0.03,0.05,0.05,0.07,0.08c0.02,0.02,0.03,0.05,0.05,0.07c0.08,0.12,0.12,0.24,0.15,0.37c0,0.02,0.01,0.04,0.01,0.06
		c0,0.01,0,0.03,0.01,0.04c0.01,0.05,0.01,0.1,0.01,0.15C283.88,486,283.81,486.34,283.81,486.59z"/>
	<path class="st1" d="M290,491.73c0,0.05-0.02,0.1-0.03,0.15c-1.9-0.02-3.8-0.04-5.71-0.06c0.62-0.33,1.28-0.13,1.92-0.14
		c1.25-0.04,2.5-0.01,3.76,0C289.96,491.69,290,491.72,290,491.73z"/>
	<path class="st0" d="M355.39,466.23c-3.43-3.23-6.85-6.46-10.25-9.72c-0.33-0.32-0.45-0.29-0.73,0.05
		c-2.47,2.9-5.13,5.63-7.76,8.38c-10.18,10.65-20.34,21.3-30.52,31.95c-0.4,0.42-0.7,0.88-0.87,1.45c-0.5,1.75-1.02,3.49-1.53,5.23
		c0.12,0.11,0.19,0.25,0.14,0.4c-0.43,1.48-0.87,2.96-1.31,4.44c-0.43,1.44-1.18,2.81-0.92,4.39l0.01,0.02
		c1.66,0.19,3.04-0.71,4.53-1.15c2.2-0.65,4.27-1.69,6.53-2.15c0.12-0.23,0.34-0.19,0.55-0.18l-0.02,0.01
		c0.01,0,0.01-0.01,0.01-0.01c0.83-0.53,1.74-0.87,2.7-1.07c0.08-0.28,0.28-0.39,0.56-0.37c0.39-0.37,0.79-0.72,1.16-1.11
		c12.58-13.24,25.16-26.49,37.76-39.71C355.8,466.69,355.71,466.53,355.39,466.23z M313.44,506.58c-2.1,0.74-4.21,1.49-6.31,2.22
		c-0.75,0.26-1.83-0.53-1.79-1.4c0.2-0.67,0.44-1.44,0.67-2.2c0.44-1.45,0.88-2.91,1.3-4.36c0.12-0.4,0.21-0.71,0.68-0.27
		c1.87,1.77,3.84,3.43,5.65,5.27C314.09,506.3,313.87,506.43,313.44,506.58z M315.96,508.28l0.01-0.01c0,0-0.01,0-0.01,0
		C315.96,508.27,315.96,508.27,315.96,508.28C315.96,508.28,315.96,508.28,315.96,508.28z M312.73,509.52c0,0-0.01,0-0.01,0
		c0,0,0,0.01,0,0.01C312.72,509.53,312.72,509.52,312.73,509.52z"/>
	<path class="st0" d="M321.58,463.57c0.25-0.01,0.39,0.14,0.49,0.35c-0.01,0.16,0.02,0.31,0.19,0.39c0,0-0.01-0.02-0.01-0.02
		c-0.01,0.21-0.05,0.43,0.19,0.56c0,0-0.01-0.02-0.01-0.02c-0.06,0.55-0.12,1.11-0.18,1.66c0,0,0.01-0.02,0.01-0.02
		c-0.17,0.07-0.2,0.21-0.19,0.38c0,0,0.01-0.02,0.01-0.02c-0.07,0.06-0.13,0.13-0.2,0.19c0,0,0.01-0.01,0.01-0.01
		c-1.06,0.23-2.14,0.16-3.21,0.17c-2.75,0.01-5.49,0.01-8.23-0.17c-0.78-0.05-1.52-0.19-2.26-0.43c-0.53-0.17-0.97-0.71-1.61-0.5
		c-0.86-0.37-1.54-1.02-2.3-1.55c-1.6-1.1-2.56-0.98-3.76,0.55c-0.96,1.22-1.8,2.54-2.79,3.74c-1.26,1.53-2.73,2.77-4.86,2.88
		c-2.18,0.11-3.78-0.94-5.14-2.47c-0.58-0.65-1.09-1.35-1.64-2.02c-1.11-1.35-2.5-1.36-3.64-0.02c-0.55,0.64-1.08,1.28-2.05,1.26
		c-1.47-0.03-2.4-1.3-1.96-2.71c0.57-1.8,2.9-3.41,5.05-3.63c2.81-0.29,4.74,1.08,6.38,3.11c0.3,0.37,0.56,0.78,0.88,1.14
		c1.28,1.45,2.65,1.4,3.81-0.14c0.97-1.29,1.87-2.64,2.86-3.91c2.39-3.09,5.6-3.57,8.83-1.36c1.28,0.88,2.49,1.87,4.08,2.17
		c0.83,0.16,1.67,0.12,2.51,0.14c2.55,0.09,5.09-0.07,7.64,0.13c-2.94,0-5.87,0-8.81,0c0,0.06,0,0.11,0,0.17
		C314.96,463.57,318.27,463.57,321.58,463.57z"/>
	<path class="st0" d="M354.98,447c1.3-0.04,2.35,0.39,3.23,1.15c1.41,1.21,2.8,2.45,4.14,3.73c2.24,2.14,2.41,4.94,0.41,7.29
		c-1.3,1.53-2.72,2.96-4.05,4.46c-0.34,0.38-0.52,0.31-0.84,0c-3.46-3.28-6.93-6.55-10.41-9.82c-0.26-0.25-0.36-0.37-0.06-0.69
		c1.48-1.57,2.91-3.19,4.39-4.76C352.7,447.4,353.76,447,354.98,447z"/>
	<path class="st0" d="M260.01,452.21c0.25,0.8-0.29,1.47-0.43,2.19c-0.21,1.11-0.2,2.2-0.24,3.31c-0.04,1.33,0.1,2.66,0.02,4
		c-0.07,1.13,0.12,2.27,0.02,3.39c-0.19,2.26,0.22,4.52-0.13,6.77c-0.11,0.71,0.09,1.47,0.15,2.2c0.11,1.35-0.28,2.67-0.19,4.03
		c0.09,1.33,0.25,2.66,0.16,3.98c-0.1,1.48-0.1,2.97-0.07,4.43c0.02,1.26,0.01,2.54,0.04,3.8c0.03,1.16-0.02,2.33-0.05,3.5
		c-0.01,0.54,0.11,1.06,0.13,1.59c0.08,2.07-0.27,4.12-0.2,6.18c0.16,4.48,0.19,8.96,0.18,13.44c-0.01,2.05,0.15,4.1-0.05,6.13
		c-0.18,1.85,0.25,3.67-0.06,5.52c-0.13,0.76,0.24,1.62,0.47,2.42c0.11,0.38,0.19,0.75,0.15,1.14c-0.91-1.82-1.04-3.78-1.04-5.75
		c-0.01-15.45,0-30.91,0-46.36c0-7.02-0.01-14.04,0.02-21.06C258.91,455.37,259.22,453.73,260.01,452.21z"/>
	<path class="st0" d="M266.21,536.97c0.99,0.02,1.91,0.39,2.8,0.72c1.13,0.41,2.27,0.45,3.4,0.4c0.66-0.03,1.28-0.07,1.94,0.02
		c1.33,0.17,2.67-0.05,4.01,0c1.55,0.06,3.09-0.09,4.65-0.03c1.46,0.05,2.95,0.04,4.44-0.05c2.17-0.14,4.36-0.16,6.55,0.07
		c1.2,0.13,2.44-0.25,3.66-0.13c2.27,0.22,4.54,0.07,6.81,0.06c1.47-0.01,2.94,0.17,4.44,0.02c1.71-0.17,3.49,0.12,5.24,0.09
		c1.35-0.03,2.69-0.19,4.04-0.15c2.23,0.07,4.45,0.15,6.68,0.17c1.63,0.01,3.24-0.2,4.87-0.13c0.91,0.04,1.88-0.4,2.76-0.75
		c0.45-0.18,0.85-0.21,1.3-0.18c-1.73,1-3.63,1.38-5.57,1.38c-18.77,0.03-37.54,0.04-56.31,0
		C269.93,538.46,267.96,538.07,266.21,536.97z"/>
	<path class="st0" d="M319.56,478.75c0-0.64-0.29-0.73-0.92-0.7c-1.56,0.08-3.14,0.29-4.7,0c-0.63-0.12-1.17,0.14-1.77,0.14
		c-12.24-0.02-24.49,0.03-36.73-0.06c-1.87-0.01-3.85,0.14-5.62-0.83c-0.26-0.14-0.64-0.16-0.3-0.58c1.3,0.85,2.73,1.06,4.27,1.06
		c15.35-0.07,30.7-0.1,46.06-0.15c0.2,0,0.4,0,0.6,0c0.05,0.07,0.1,0.15,0.16,0.22C320.26,478.14,319.91,478.45,319.56,478.75z"/>
	<path class="st0" d="M270.22,452.81c0.58-0.79,1.45-0.74,2.27-0.74c10.64-0.01,21.28-0.01,31.91-0.01c7.85,0,15.7,0,23.55,0
		c0.55,0,1.15-0.11,1.49,0.51c-0.72-0.19-1.45-0.31-2.21-0.31c-18.07,0.04-36.14,0.07-54.21,0.1
		C272.06,452.36,271.12,452.43,270.22,452.81z"/>
	<path class="st0" d="M339.73,531.13c0.21-1.2,0.78-2.31,0.96-3.53c0.06-0.39,0.11-0.77,0.11-1.15c0-12.96,0-25.91,0-38.87
		c0-0.39,0.03-0.78-0.19-1.14c0.13-0.16,0.26-0.32,0.4-0.49c0.26,0.24,0.13,0.53,0.14,0.77c0.01,12.92,0.02,25.85,0,38.77
		C341.14,527.48,340.83,529.41,339.73,531.13z"/>
	<path class="st0" d="M329.08,444.17c-0.28,0.25-0.63,0.15-0.95,0.15c-18.69,0.01-37.37,0.01-56.06,0c-0.32,0-0.66,0.11-0.95-0.15
		c4.8-0.02,9.6-0.05,14.4-0.05c14.07,0,28.14,0,42.21,0.01C328.18,444.12,328.63,444.15,329.08,444.17z"/>
	<path class="st0" d="M298.52,515.25c-0.86-0.53-0.75-1.44-0.58-2.15c0.64-2.54,1.42-5.05,2.16-7.57c0.45-1.51,0.82-3.05,1.29-4.55
		c0.48-1.53,0.86-3.1,1.55-4.56c0.09-0.19,0.19-0.38,0.46-0.34c-1.24,2.78-1.85,5.76-2.76,8.64c-0.78,2.46-1.42,4.97-2.21,7.43
		C298.1,513.22,298.03,514.22,298.52,515.25z"/>
	<path class="st0" d="M306.59,466.1c0.65-0.21,1.08,0.32,1.61,0.5c0.75,0.24,1.48,0.38,2.26,0.43c2.74,0.18,5.49,0.17,8.23,0.17
		c1.07,0,2.15,0.07,3.21-0.17c-0.52,0.54-1.2,0.47-1.85,0.46c-2.99-0.02-5.98-0.06-8.97-0.13
		C309.49,467.32,307.95,467.03,306.59,466.1z"/>
	<path class="st0" d="M268.06,475.09c-0.68-0.51-0.89-1.28-0.89-2.03c-0.03-5.37-0.03-10.73,0-16.1c0-0.66,0.11-1.37,0.74-1.82
		c-0.44,1.13-0.55,2.31-0.55,3.52c0.02,4.26,0.02,8.52,0,12.78C267.35,472.71,267.5,473.93,268.06,475.09z"/>
	<path class="st0" d="M301.66,512.82c1.65,0.19,3.04-0.71,4.53-1.15c2.2-0.65,4.27-1.69,6.54-2.15c-1.08,0.71-2.35,0.95-3.54,1.4
		c-2,0.75-4.04,1.42-6.07,2.11C302.6,513.2,302.08,513.36,301.66,512.82z"/>
	<path class="st0" d="M303.73,503.57c0.12,0.11,0.19,0.25,0.14,0.4c-0.43,1.48-0.86,2.97-1.31,4.44c-0.43,1.44-1.18,2.81-0.92,4.39
		c-0.4-0.35-0.5-0.74-0.34-1.27C302.13,508.88,302.92,506.22,303.73,503.57z"/>
	<path class="st0" d="M321.58,463.57c-3.31,0-6.62,0-9.93,0c0-0.06,0-0.11,0-0.17c2.94,0,5.87,0,8.81,0
		C320.85,463.4,321.24,463.29,321.58,463.57z"/>
	<path class="st0" d="M301.54,516.37c-0.65,0.6-1.87,0.37-2.32-0.43C299.93,516.39,300.72,516.47,301.54,516.37z"/>
	<path class="st0" d="M313.25,509.35c0.84-0.54,1.75-0.88,2.72-1.08C315.15,508.84,314.23,509.17,313.25,509.35z"/>
	<path class="st0" d="M259.92,530.23c0.58,0.38,0.84,0.91,0.76,1.6C260.33,531.34,260.05,530.82,259.92,530.23z"/>
	<path class="st0" d="M305.92,493.37c0.32-0.53,0.48-1.2,1.24-1.3C306.81,492.56,306.42,493.01,305.92,493.37z"/>
	<path class="st0" d="M264.78,536.17c0.52,0.13,1.22-0.03,1.34,0.79C265.64,536.75,265.17,536.53,264.78,536.17z"/>
	<path class="st0" d="M317.87,480.59c0.23-0.59,0.49-1.15,1.19-1.32C318.73,479.77,318.31,480.19,317.87,480.59z"/>
	<path class="st0" d="M315.71,482.93c0.17-0.52,0.35-1.03,1-1.12C316.38,482.18,316.04,482.56,315.71,482.93z"/>
	<path class="st0" d="M260.5,451.17c0.39,0.58-0.02,0.79-0.47,0.96C260.19,451.81,260.34,451.49,260.5,451.17z"/>
	<path class="st0" d="M322.26,466.49c0.06-0.55,0.12-1.11,0.18-1.66C322.77,465.42,322.65,465.97,322.26,466.49z"/>
	<path class="st0" d="M309.53,489.58c0.17-0.43,0.27-0.93,0.88-0.95C310.16,488.99,309.92,489.35,309.53,489.58z"/>
	<path class="st0" d="M334.16,536.92c0.29-0.48,0.68-0.77,1.26-0.75C335.06,536.52,334.63,536.76,334.16,536.92z"/>
	<path class="st0" d="M269.14,453.55c0.03-0.48,0.37-0.54,0.74-0.56C269.64,453.17,269.39,453.36,269.14,453.55z"/>
	<path class="st0" d="M263.48,535.19c0.46-0.19,0.57,0.07,0.59,0.45C263.87,535.49,263.68,535.34,263.48,535.19z"/>
	<path class="st0" d="M339.38,531.9c-0.04-0.34-0.02-0.65,0.36-0.78C339.72,531.42,339.62,531.69,339.38,531.9z"/>
	<path class="st0" d="M268.24,454.6c-0.01-0.28,0-0.55,0.4-0.54C268.5,454.24,268.37,454.42,268.24,454.6z"/>
	<path class="st0" d="M267.89,455.15c-0.02-0.28-0.04-0.55,0.35-0.56C268.13,454.78,268.01,454.96,267.89,455.15z"/>
	<path class="st0" d="M264.25,535.8c0.28-0.01,0.55-0.02,0.54,0.38C264.61,536.05,264.43,535.93,264.25,535.8z"/>
	<path class="st0" d="M305.4,493.91c-0.01-0.36,0.2-0.52,0.53-0.55C305.83,493.61,305.64,493.79,305.4,493.91z"/>
	<path class="st0" d="M307.15,492.08c-0.03-0.27,0.1-0.4,0.37-0.37C307.45,491.88,307.33,492,307.15,492.08z"/>
	<path class="st0" d="M335.41,536.18c0.01-0.23,0.02-0.47,0.34-0.21C335.64,536.04,335.53,536.11,335.41,536.18z"/>
	<path class="st0" d="M303.44,496.06c-0.13-0.31,0.03-0.39,0.3-0.4C303.64,495.79,303.54,495.92,303.44,496.06z"/>
	<path class="st0" d="M315.96,508.28c0.08-0.29,0.28-0.4,0.56-0.38C316.39,508.11,316.2,508.22,315.96,508.28z"/>
	<path class="st0" d="M312.71,509.53c0.12-0.25,0.34-0.2,0.56-0.19C313.15,509.6,312.9,509.49,312.71,509.53z"/>
	<path class="st0" d="M304.89,494.45c-0.07-0.29,0.07-0.38,0.33-0.36C305.16,494.27,305.05,494.38,304.89,494.45z"/>
	<path class="st0" d="M322.45,464.84c-0.24-0.13-0.2-0.35-0.19-0.56C322.53,464.4,322.39,464.66,322.45,464.84z"/>
	<path class="st0" d="M269.86,453c0.06-0.18,0.21-0.21,0.38-0.2C270.16,452.97,270.01,452.97,269.86,453z"/>
	<path class="st0" d="M322.27,464.3c-0.17-0.08-0.2-0.22-0.19-0.39C322.27,463.98,322.24,464.16,322.27,464.3z"/>
	<path class="st0" d="M322.08,466.85c-0.01-0.16,0.02-0.31,0.19-0.38C322.24,466.61,322.27,466.78,322.08,466.85z"/>
	<path class="st0" d="M309.11,490.08c0.01-0.16,0.01-0.33,0.25-0.31C309.28,489.88,309.2,489.98,309.11,490.08z"/>
	<path class="st0" d="M263.16,534.9c0.16,0.01,0.34,0.01,0.31,0.25C263.36,535.07,263.26,534.99,263.16,534.9z"/>
	<path class="st0" d="M317.58,480.9c0.01-0.16,0-0.34,0.26-0.28C317.75,480.72,317.67,480.81,317.58,480.9z"/>
	<path class="st0" d="M304.07,495.3c0.01-0.16,0-0.34,0.25-0.29C304.24,495.11,304.16,495.21,304.07,495.3z"/>
	<path class="st0" d="M333.79,537.1c0.06-0.2,0.21-0.22,0.38-0.19C334.1,537.07,333.94,537.07,333.79,537.1z"/>
	<path class="st0" d="M321.9,467.03c0.07-0.06,0.13-0.13,0.2-0.19C322.03,466.9,321.96,466.96,321.9,467.03z"/>
	<path class="st0" d="M304.34,494.99c-0.04-0.14,0.01-0.19,0.15-0.16C304.44,494.88,304.39,494.93,304.34,494.99z"/>
	<path class="st0" d="M298.69,515.44c-0.06-0.07-0.13-0.14-0.19-0.21C298.56,515.3,298.63,515.37,298.69,515.44z"/>
	<path class="st0" d="M315.62,483.04c-0.02-0.03-0.05-0.07-0.07-0.1c0.04,0.02,0.08,0.04,0.12,0.06
		C315.66,483,315.62,483.04,315.62,483.04z"/>
	<path class="st0" d="M316.69,481.81c0.07-0.07,0.14-0.14,0.2-0.2C316.83,481.68,316.76,481.75,316.69,481.81z"/>
	<path class="st0" d="M304.52,494.81c-0.04-0.14,0.02-0.19,0.16-0.16C304.62,494.7,304.57,494.75,304.52,494.81z"/>
	<path class="st0" d="M309.37,489.77c-0.03-0.14,0.03-0.19,0.17-0.18C309.48,489.64,309.42,489.7,309.37,489.77z"/>
	<path class="st0" d="M305.22,494.09c-0.02-0.14,0.04-0.2,0.18-0.18C305.34,493.97,305.28,494.03,305.22,494.09z"/>
	<path class="st0" d="M304.7,494.63c-0.04-0.14,0.02-0.19,0.16-0.17C304.8,494.52,304.75,494.57,304.7,494.63z"/>
	<path class="st0" d="M307.5,491.71c0.07-0.07,0.15-0.13,0.22-0.2C307.65,491.58,307.57,491.64,307.5,491.71z"/>
	<path class="st0" d="M264.06,535.63c0.07,0.06,0.14,0.12,0.21,0.18C264.19,535.75,264.12,535.69,264.06,535.63z"/>
	<path class="st1" d="M288.55,523.62c1.01,1.01,1.13,2.25,0.31,3.11c-0.72,0.76-2.2,0.94-3.2-0.13c-1.23-1.31-2.55-2.54-3.78-3.85
		c-0.43-0.46-0.66-0.43-1.09,0.02c-1.24,1.31-2.53,2.56-3.81,3.82c-0.94,0.93-2.21,1.02-3.04,0.23c-0.89-0.85-0.85-2.11,0.14-3.1
		c1.23-1.23,2.43-2.5,3.72-3.66c0.63-0.57,0.51-0.87-0.04-1.38c-1.27-1.19-2.48-2.44-3.71-3.67c-0.59-0.59-0.88-1.29-0.69-2.12
		c0.32-1.46,1.57-1.95,3.18-1.26c0.05,0.03,0.1,0.06,0.15,0.1c0.11,0.1,0.23,0.21,0.34,0.31c0.03,0.03,0.07,0.06,0.1,0.09
		c0.03,0.03,0.06,0.06,0.1,0.09c0.01,0.01,0.01,0.01,0.01,0.01c0.02,0.03,0.05,0.06,0.08,0.08c0.03,0.04,0.07,0.07,0.1,0.11
		c0.29,0.29,0.58,0.58,0.87,0.88c0.07,0.07,0.14,0.14,0.21,0.21c0.83,0.83,1.66,1.67,2.48,2.5c0.27,0.46,0.54,0.44,0.8-0.01
		c1.3-1.27,2.59-2.55,3.9-3.82c0.3-0.29,0.64-0.53,0.96-0.79c0.11-0.04,0.22-0.07,0.33-0.11c1.93,0.1,2.85,1.2,2.35,2.78
		c-0.14,0.45-0.47,0.75-0.78,1.08c-1.37,1.42-2.74,2.85-4.16,4.32C285.7,520.79,287.13,522.2,288.55,523.62z"/>
	<path class="st1" d="M291.31,494.63c-0.3,0.92-0.95,1.36-1.88,1.37c-1.71,0.02-3.42,0.04-5.13-0.01c-0.66-0.02-0.79,0.2-0.78,0.81
		c0.04,1.59,0.02,3.18,0.01,4.77c0,1.35-0.81,2.23-2.03,2.24c-1.26,0.01-2.1-0.89-2.1-2.27c-0.01-1.56-0.05-3.12,0.02-4.68
		c0.03-0.75-0.23-0.88-0.91-0.87c-1.71,0.04-3.42,0.02-5.13,0c-1.32-0.01-2.1-0.78-2.11-2.03c-0.01-1.3,0.78-2.08,2.14-2.09
		c1.71-0.01,3.42-0.05,5.13,0.02c0.74,0.03,0.89-0.23,0.86-0.91c-0.05-1.56,0.02-3.12-0.03-4.68c-0.03-0.96,0.29-1.69,1.09-2.21
		c0.66-0.25,1.32-0.23,1.97,0.01c0.17,0.13,0.35,0.25,0.52,0.38c0.06,0.06,0.13,0.13,0.19,0.19c0,0-0.01,0-0.01-0.01
		c0.31,0.6,0.4,1.23,0.39,1.9c-0.03,1.55-0.02,3.1,0,4.66c0,0.23-0.21,0.66,0.35,0.61h0.37c1.9,0.02,3.8,0.04,5.71,0.06
		C291.24,492.54,291.68,493.47,291.31,494.63z"/>
	<polygon class="st0" points="283.17,484.68 283.15,484.67 283.17,484.67 	"/>
	<path class="st1" d="M326.16,526.03h-14.79c-1.68-1.24-1.82-2.57-0.43-3.91c0.89-0.15,1.79-0.18,2.69-0.18
		c2.64-0.01,5.28-0.04,7.91-0.06c0.36-0.01,0.71-0.01,1.07-0.02h3.61c1.04,0.25,1.54,0.84,1.6,1.85
		C327.88,524.79,327.26,525.67,326.16,526.03z"/>
	<path class="st1" d="M327.49,517.6c-0.19,0.19-0.37,0.38-0.56,0.57c-0.07,0.05-0.14,0.1-0.21,0.15c-0.05-0.01-0.1,0.01-0.15,0.04
		c-0.48,0.03-0.95,0.08-1.42,0.09c-3.19,0.04-6.37,0.07-9.56,0.11c-0.48,0.01-0.95,0.01-1.43,0.02c-0.9-0.01-1.8-0.02-2.71-0.03
		c-1.71-0.65-1.94-2.13-0.57-3.76c0.13-0.08,0.26-0.15,0.39-0.23h0c0.83-0.12,1.66-0.16,2.5-0.15c4.04,0.06,8.07,0.1,12.11,0.16
		c0.35,0.01,0.7,0.1,1.05,0.15c0.11,0.07,0.22,0.14,0.33,0.21c0.12,0.2,0.25,0.4,0.37,0.6c-0.01,0.05-0.01,0.08,0.03,0.11
		C327.75,516.3,327.7,516.96,327.49,517.6z"/>
	<path class="st0" d="M326.93,514.7c-0.35-0.05-0.7-0.15-1.05-0.15c-4.04-0.06-8.07-0.1-12.11-0.16c-0.84-0.01-1.67,0.03-2.5,0.15
		c0.15-0.33,0.44-0.35,0.75-0.37c2.15-0.08,4.3,0.02,6.46-0.11c2.34-0.14,4.69,0.06,7.04,0.13
		C326.03,514.21,326.6,514.16,326.93,514.7z"/>
	<path class="st0" d="M326.22,521.87h-3.61c-0.36-0.19-0.71-0.2-1.07,0.02c-2.64,0.02-5.28,0.04-7.91,0.06
		c-0.9,0.01-1.8,0.03-2.69,0.18c-0.08-0.08-0.08-0.15,0.01-0.21c0.24-0.15,0.5-0.17,0.78-0.17c4.6,0.07,9.2-0.32,13.8-0.16
		C325.73,521.59,326.23,521.2,326.22,521.87z"/>
	<path class="st0" d="M326.57,518.35c-0.04,0.2-0.15,0.32-0.36,0.32c-0.21,0.01-0.42,0.01-0.63,0.01
		c-4.41-0.13-8.82,0.25-13.23,0.17c-0.32-0.01-0.75,0.21-0.9-0.32c0.9,0.01,1.8,0.02,2.71,0.03c0.48,0.18,0.96,0.21,1.43-0.02
		c3.19-0.03,6.37-0.06,9.56-0.11C325.62,518.44,326.09,518.38,326.57,518.35z"/>
	<path class="st0" d="M325.87,526.24c-4.58,0.01-9.17,0.01-13.75,0.01c-0.28,0-0.54-0.01-0.75-0.22h14.79
		C326.27,526.38,325.98,526.24,325.87,526.24z"/>
	<path class="st0" d="M283.89,491.83c-0.55,0.05-0.35-0.38-0.35-0.61c-0.02-1.55-0.03-3.1,0-4.66c0.01-0.67-0.08-1.3-0.39-1.9
		c0,0,0.01,0,0.01,0.01c0.11,0.04,0.2,0.09,0.28,0.14c0.05,0.03,0.09,0.07,0.13,0.11c0.03,0.03,0.05,0.05,0.07,0.08
		c0.02,0.02,0.03,0.05,0.05,0.07c0.08,0.12,0.12,0.24,0.15,0.37c0,0.02,0.01,0.04,0.01,0.06c0,0.01,0,0.03,0.01,0.04
		c0.01,0.05,0.01,0.1,0.01,0.15c0.01,0.32-0.05,0.66-0.05,0.91C283.81,488.34,284.02,490.08,283.89,491.83z"/>
	<path class="st0" d="M290,491.73c0,0.05-0.02,0.1-0.03,0.15c-1.9-0.02-3.8-0.04-5.71-0.06c0.62-0.33,1.28-0.13,1.92-0.14
		c1.25-0.04,2.5-0.01,3.76,0C289.96,491.69,290,491.72,290,491.73z"/>
	<path class="st0" d="M327.49,517.6c0.21-0.64,0.27-1.3,0.17-1.98C328.23,516.19,328.16,516.99,327.49,517.6z"/>
	<path class="st0" d="M282.45,484.1c-0.66-0.24-1.31-0.26-1.97-0.01C281.12,483.39,281.83,483.39,282.45,484.1z"/>
	<path class="st0" d="M281.76,515.99c-0.26,0.45-0.53,0.47-0.8,0.01C281.23,516,281.5,516,281.76,515.99z"/>
	<path class="st0" d="M327.63,515.51c-0.12-0.2-0.25-0.4-0.37-0.6C327.68,514.93,327.65,515.22,327.63,515.51z"/>
	<path class="st0" d="M311.27,514.54c-0.13,0.08-0.26,0.15-0.39,0.23C310.95,514.61,311.1,514.56,311.27,514.54z"/>
	<path class="st0" d="M286.95,511.28c-0.11,0.04-0.22,0.07-0.33,0.11C286.67,511.17,286.77,511.09,286.95,511.28z"/>
	<path class="st0" d="M276.68,511.72c-0.05-0.03-0.1-0.06-0.15-0.1C276.65,511.55,276.66,511.63,276.68,511.72z"/>
	<path class="st1" d="M313.44,506.58c-2.1,0.74-4.21,1.49-6.31,2.22c-0.75,0.26-1.83-0.53-1.79-1.4c0.2-0.67,0.44-1.44,0.67-2.2
		c0.44-1.45,0.88-2.91,1.3-4.36c0.12-0.4,0.21-0.71,0.68-0.27c1.87,1.77,3.84,3.43,5.65,5.27
		C314.09,506.3,313.87,506.43,313.44,506.58z"/>
	<path class="st0" d="M322.6,521.87c-0.36,0.01-0.71,0.01-1.07,0.02C321.89,521.67,322.24,521.68,322.6,521.87z"/>
	<path class="st0" d="M315.58,518.55c-0.47,0.23-0.95,0.2-1.43,0.02C314.63,518.56,315.11,518.56,315.58,518.55z"/>
</g>
<g>
	<path class="st0" d="M459.18,446.78v89.1h-24.94v-62.01l-17.36,62.01h-14.43l-17.82-60.97v60.97h-8.68v-89.1h26.24l15.27,53.79
		l15.21-53.79H459.18z"/>
	<path class="st0" d="M500.5,446.78v89.1h-25.85v-89.1H500.5z"/>
	<path class="st0" d="M581.11,446.78v89.1h-19.78l-37.21-56.4v56.4h-8.68v-89.1h16.38l40.6,60.9v-60.9H581.11z"/>
	<path class="st0" d="M630.85,487.77h36.68v48.11h-8.22l-2.81-6.14c-7.18,5.09-14.77,7.64-22.78,7.64
		c-13.19,0-23.42-3.95-30.71-11.85c-7.29-7.9-10.93-19.03-10.93-33.39c0-13.97,3.86-25.27,11.59-33.91
		c7.72-8.64,17.83-12.96,30.32-12.96c16.45,0,26.46,8.4,30.03,25.2l-12.14,5.55v-2.15l-0.2-4.83c-0.83-10.49-5.68-15.73-14.56-15.73
		c-6.53,0-10.99,2.79-13.38,8.35c-2.39,5.57-3.59,15.95-3.59,31.14c0,14.19,0.97,23.83,2.9,28.92c1.94,5.09,5.62,7.64,11.06,7.64
		c6.4,0,9.59-3.57,9.59-10.71v-21.93h-12.86V487.77z"/>
	<path class="st0" d="M716.69,445.22c25.94,0,38.9,15.36,38.9,46.08c0,30.72-13.21,46.08-39.62,46.08s-39.62-15.71-39.62-47.13
		C676.35,460.23,689.79,445.22,716.69,445.22z M715.97,452.33c-4.87,0-8.17,2.69-9.89,8.06c-1.72,5.38-2.58,15.68-2.58,30.91
		s0.86,25.53,2.58,30.91c1.72,5.38,5.01,8.06,9.89,8.06s8.17-2.69,9.89-8.06c1.72-5.37,2.58-15.68,2.58-30.91
		c0-15.19-0.86-25.48-2.58-30.88C724.14,455.03,720.84,452.33,715.97,452.33z"/>
</g>
</svg>
